<svg width="260" height="161" viewBox="0 0 260 161" fill="none" xmlns="http://www.w3.org/2000/svg">
<path d="M76.47 158.63C76.47 137.51 59.35 120.39 38.23 120.39C17.11 120.39 0 137.51 0 158.63H76.47Z" fill="#005B63"/>
<path d="M76.47 120.729C76.47 99.6093 59.35 82.4893 38.23 82.4893C17.11 82.4893 0 99.6093 0 120.729H76.47Z" fill="#EA502C"/>
<path d="M240.858 76.2299C251.368 76.2299 259.888 67.7099 259.888 57.1999C259.888 46.6899 251.368 38.1699 240.858 38.1699C230.348 38.1699 221.828 46.6899 221.828 57.1999C221.828 67.7099 230.348 76.2299 240.858 76.2299Z" fill="#EA502C"/>
<path d="M240.858 38.1596C251.368 38.1596 259.888 29.6396 259.888 19.1296C259.888 8.61963 251.368 0.0996094 240.858 0.0996094C230.348 0.0996094 221.828 8.61963 221.828 19.1296C221.828 29.6396 230.348 38.1596 240.858 38.1596Z" fill="#EA502C"/>
<path d="M202.798 76.2299C213.308 76.2299 221.828 67.7099 221.828 57.1999C221.828 46.6899 213.308 38.1699 202.798 38.1699C192.288 38.1699 183.768 46.6899 183.768 57.1999C183.768 67.7099 192.288 76.2299 202.798 76.2299Z" fill="#EA502C"/>
<path d="M202.798 38.1596C213.308 38.1596 221.828 29.6396 221.828 19.1296C221.828 8.61963 213.308 0.0996094 202.798 0.0996094C192.288 0.0996094 183.768 8.61963 183.768 19.1296C183.768 29.6396 192.288 38.1596 202.798 38.1596Z" fill="#EA502C"/>
<path d="M185.439 86.71H224.159C243.619 86.71 259.419 102.51 259.419 121.97V160.69H220.699C201.239 160.69 185.439 144.89 185.439 125.43V86.71Z" fill="#005B63"/>
<path d="M131.949 71.96C131.949 52.09 115.839 35.98 95.9688 35.98C115.839 35.98 131.949 19.87 131.949 0C131.949 19.87 148.059 35.98 167.929 35.98C148.059 35.98 131.949 52.09 131.949 71.96Z" fill="#EA502C"/>
<path d="M86.1289 74.2197C86.1289 99.5297 106.639 120.04 131.949 120.04C157.259 120.04 177.769 99.5297 177.769 74.2197H86.1289Z" fill="#EA502C"/>
<path d="M131.95 120.64L88.2695 160.69H175.63L131.95 120.64Z" fill="#005B63"/>
</svg>
