<svg width="23" height="24" viewBox="0 0 23 24" fill="none" xmlns="http://www.w3.org/2000/svg">
<path d="M5.06244 7.49994C5.06244 6.95293 5.27974 6.42833 5.66654 6.04154C6.05333 5.65474 6.57793 5.43744 7.12494 5.43744H8.06244C8.60704 5.43713 9.1294 5.22145 9.51557 4.83744L10.1718 4.18119C10.3635 3.98844 10.5914 3.83548 10.8424 3.73111C11.0933 3.62673 11.3625 3.573 11.6343 3.573C11.9061 3.573 12.1753 3.62673 12.4263 3.73111C12.6773 3.83548 12.9051 3.98844 13.0968 4.18119L13.7531 4.83744C14.1393 5.22182 14.6624 5.43744 15.2062 5.43744H16.1437C16.6907 5.43744 17.2153 5.65474 17.6021 6.04154C17.9889 6.42833 18.2062 6.95293 18.2062 7.49994V8.43744C18.2062 8.98119 18.4218 9.50432 18.8062 9.89057L19.4624 10.5468C19.6552 10.7385 19.8082 10.9664 19.9125 11.2174C20.0169 11.4683 20.0706 11.7375 20.0706 12.0093C20.0706 12.2811 20.0169 12.5503 19.9125 12.8013C19.8082 13.0523 19.6552 13.2801 19.4624 13.4718L18.8062 14.1281C18.4222 14.5142 18.2065 15.0366 18.2062 15.5812V16.5187C18.2062 17.0657 17.9889 17.5903 17.6021 17.9771C17.2153 18.3639 16.6907 18.5812 16.1437 18.5812H15.2062C14.6616 18.5815 14.1392 18.7972 13.7531 19.1812L13.0968 19.8374C12.9051 20.0302 12.6773 20.1832 12.4263 20.2875C12.1753 20.3919 11.9061 20.4456 11.6343 20.4456C11.3625 20.4456 11.0933 20.3919 10.8424 20.2875C10.5914 20.1832 10.3635 20.0302 10.1718 19.8374L9.51557 19.1812C9.1294 18.7972 8.60704 18.5815 8.06244 18.5812H7.12494C6.57793 18.5812 6.05333 18.3639 5.66654 17.9771C5.27974 17.5903 5.06244 17.0657 5.06244 16.5187V15.5812C5.06213 15.0366 4.84645 14.5142 4.46244 14.1281L3.80619 13.4718C3.61344 13.2801 3.46048 13.0523 3.35611 12.8013C3.25173 12.5503 3.198 12.2811 3.198 12.0093C3.198 11.7375 3.25173 11.4683 3.35611 11.2174C3.46048 10.9664 3.61344 10.7385 3.80619 10.5468L4.46244 9.89057C4.84645 9.5044 5.06213 8.98204 5.06244 8.43744V7.49994Z" stroke="currentColor" stroke-width="2.25" stroke-linecap="round" stroke-linejoin="round"/>
<path d="M8.8125 12L10.6875 13.875L14.4375 10.125" stroke="currentColor" stroke-width="2.25" stroke-linecap="round" stroke-linejoin="round"/>
</svg>
