<svg width="24" height="24" viewBox="0 0 24 24" fill="none" xmlns="http://www.w3.org/2000/svg">
<path d="M9.78101 3.5625H14.4685C14.8415 3.5625 15.1992 3.71066 15.4629 3.97438C15.7266 4.2381 15.8748 4.59579 15.8748 4.96875C15.8748 5.83899 15.5291 6.67359 14.9137 7.28894C14.2983 7.9043 13.4637 8.25 12.5935 8.25H11.656C10.7858 8.25 9.95117 7.9043 9.33581 7.28894C8.72046 6.67359 8.37476 5.83899 8.37476 4.96875C8.37476 4.59579 8.52291 4.2381 8.78664 3.97438C9.05036 3.71066 9.40805 3.5625 9.78101 3.5625Z" stroke="currentColor" stroke-width="2.25" stroke-linecap="round" stroke-linejoin="round"/>
<path d="M4.62524 16.6875V15.75C4.62524 13.7609 5.41542 11.8532 6.82194 10.4467C8.22847 9.04018 10.1361 8.25 12.1252 8.25C14.1144 8.25 16.022 9.04018 17.4285 10.4467C18.8351 11.8532 19.6252 13.7609 19.6252 15.75V16.6875C19.6252 17.6821 19.2302 18.6359 18.5269 19.3391C17.8236 20.0424 16.8698 20.4375 15.8752 20.4375H8.37524C7.38068 20.4375 6.42685 20.0424 5.72359 19.3391C5.02033 18.6359 4.62524 17.6821 4.62524 16.6875Z" stroke="currentColor" stroke-width="2.25" stroke-linecap="round" stroke-linejoin="round"/>
</svg>
