<svg width="24" height="24" viewBox="0 0 24 24" fill="none" xmlns="http://www.w3.org/2000/svg">
<path d="M4.50024 19.5H8.25024L18.094 9.65629C18.3402 9.41006 18.5355 9.11774 18.6688 8.79603C18.8021 8.47432 18.8706 8.12951 18.8706 7.78129C18.8706 7.43307 18.8021 7.08826 18.6688 6.76655C18.5355 6.44483 18.3402 6.15252 18.094 5.90629C17.8478 5.66006 17.5554 5.46474 17.2337 5.33148C16.912 5.19823 16.5672 5.12964 16.219 5.12964C15.8708 5.12964 15.526 5.19823 15.2043 5.33148C14.8825 5.46474 14.5902 5.66006 14.344 5.90629L4.50024 15.75V19.5Z" stroke="currentColor" stroke-width="2.25" stroke-linecap="round" stroke-linejoin="round"/>
<path d="M13.4062 6.84375L17.1562 10.5938" stroke="currentColor" stroke-width="2.25" stroke-linecap="round" stroke-linejoin="round"/>
</svg>
