<svg width="23" height="24" viewBox="0 0 23 24" fill="none" xmlns="http://www.w3.org/2000/svg">
<path d="M12.4377 10.125L19.3593 17.0794C20.1309 17.8481 20.1309 19.0931 19.3593 19.8609C18.9886 20.2296 18.4871 20.4366 17.9643 20.4366C17.4415 20.4366 16.94 20.2296 16.5693 19.8609L9.62524 12.9375" stroke="currentColor" stroke-width="2.25" stroke-linecap="round" stroke-linejoin="round"/>
<path d="M5.875 9.1875L9.625 12.9375" stroke="currentColor" stroke-width="2.25" stroke-linecap="round" stroke-linejoin="round"/>
<path d="M12.4375 10.125L8.6875 6.375" stroke="currentColor" stroke-width="2.25" stroke-linecap="round" stroke-linejoin="round"/>
<path d="M3.0625 20.4375H9.625" stroke="currentColor" stroke-width="2.25" stroke-linecap="round" stroke-linejoin="round"/>
<path d="M6.61878 15.5559L3.25691 12.194C3.08115 12.0182 2.98242 11.7798 2.98242 11.5312C2.98242 11.2826 3.08115 11.0442 3.25691 10.8684L5.4066 8.71873L5.87535 9.18748L8.68785 6.37498L8.2191 5.90623L10.3688 3.75654C10.5446 3.58079 10.783 3.48206 11.0316 3.48206C11.2802 3.48206 11.5186 3.58079 11.6944 3.75654L15.0563 7.11842C15.232 7.29423 15.3308 7.53264 15.3308 7.78123C15.3308 8.02982 15.232 8.26824 15.0563 8.44404L12.9066 10.5937L12.4378 10.125L9.62535 12.9375L10.0941 13.4062L7.94441 15.5559C7.7686 15.7317 7.53019 15.8304 7.2816 15.8304C7.03301 15.8304 6.79459 15.7317 6.61878 15.5559Z" stroke="currentColor" stroke-width="2.25" stroke-linecap="round" stroke-linejoin="round"/>
</svg>
