<svg xmlns="http://www.w3.org/2000/svg" xmlns:xlink="http://www.w3.org/1999/xlink" fill="none" version="1.1" width="9" height="16" viewBox="0 0 9 16"><g><path d="M1.707421,0.293207L9.41421,8L1.7075339999999999,15.7067L1.7071070000000002,15.7071Q1.566454,15.8478,1.382683,15.9239Q1.198912,16,1,16Q0.9015086,16,0.80491,15.9808Q0.708311,15.9616,0.617317,15.9239Q0.526322,15.8862,0.44443,15.8315Q0.362537,15.7767,0.29289299999999996,15.7071Q0.22324900000000003,15.6375,0.16852999999999996,15.5556Q0.11381200000000002,15.4737,0.076121,15.3827Q0.038429999999999964,15.2917,0.019214999999999982,15.1951Q0,15.0985,0,15Q0,14.8011,0.076121,14.6173Q0.15224099999999996,14.4335,0.292894,14.2929L6.58579,8L0.293207,1.707421L0.29289299999999996,1.7071070000000002Q0.15224099999999996,1.566454,0.07611999999999997,1.382683Q0,1.198912,0,1Q0,0.9015086,0.019214999999999982,0.80491Q0.038429999999999964,0.708311,0.076121,0.617317Q0.11381200000000002,0.526322,0.16852999999999996,0.44443Q0.22324900000000003,0.362537,0.29289299999999996,0.29289299999999996Q0.362537,0.22324900000000003,0.44443,0.16852999999999996Q0.526322,0.11381200000000002,0.617317,0.076121Q0.708311,0.038429999999999964,0.80491,0.019214999999999982Q0.9015086,0,1,0Q1.198912,0,1.382683,0.07611999999999997Q1.566455,0.15224099999999996,1.7071070000000002,0.29289299999999996L1.707421,0.293207Z" fill-rule="evenodd" fill="#000000" fill-opacity="1"/></g></svg>