<svg xmlns="http://www.w3.org/2000/svg" xmlns:xlink="http://www.w3.org/1999/xlink" fill="none" version="1.1" width="8.5" height="16.5" viewBox="0 0 8.5 16.5"><g><path d="M0.201708,1.261739Q0.10449399999999998,1.15758,0.05224700000000004,1.025028Q0,0.892477,0,0.75Q0,0.6761315,0.014410999999999952,0.603682Q0.028822000000000014,0.5312330000000001,0.057089999999999974,0.462987Q0.08535899999999996,0.394742,0.126398,0.333322Q0.16743699999999995,0.271903,0.21967000000000003,0.21967000000000003Q0.271903,0.16743699999999995,0.333322,0.126398Q0.394742,0.08535899999999996,0.462987,0.057089999999999974Q0.5312330000000001,0.028822000000000014,0.603682,0.014410999999999952Q0.6761315,0,0.75,0Q0.905915,0,1.048911,0.062139000000000055Q1.191908,0.12427900000000003,1.298292,0.23826099999999995L8.77591,8.25L1.298292,16.261699999999998Q1.191908,16.375700000000002,1.048911,16.4379Q0.905915,16.5,0.75,16.5Q0.6761315,16.5,0.603682,16.485599999999998Q0.5312330000000001,16.4712,0.462987,16.4429Q0.394742,16.4146,0.333322,16.3736Q0.271903,16.3326,0.21967000000000003,16.2803Q0.16743699999999995,16.228099999999998,0.126398,16.1667Q0.08535899999999996,16.1053,0.057089999999999974,16.037Q0.028822000000000014,15.9688,0.014410999999999952,15.8963Q0,15.8239,0,15.75Q0,15.6075,0.05224700000000004,15.475Q0.10449399999999998,15.3424,0.20170900000000003,15.2383L6.72409,8.25L0.201708,1.261739Z" fill-rule="evenodd" fill="#000000" fill-opacity="1"/></g></svg>