<svg width="91" height="90" viewBox="0 0 91 90" fill="none" xmlns="http://www.w3.org/2000/svg">
<g filter="url(#filter0_d_243_151)">
<rect x="4.28564" y="4" width="82" height="82" rx="41" fill="white"/>
</g>
<path d="M45.1402 57.358L44.4655 58.342C42.5397 57.7938 40.5576 56.2616 39.9813 54.8699C39.4893 56.2756 37.4931 57.8079 35.497 58.328L34.8645 57.3159C36.8746 56.9644 39.3487 55.2073 39.3487 53.1409V52.2975H40.6279V53.1409C40.6279 55.1932 43.2706 56.9926 45.1402 57.358ZM45.5338 62.1094H34.4427V61.0972H39.3346V58.0468H40.5857V61.0972H45.5338V62.1094ZM56.4033 63.501H47.8987V59.6072H51.4973V58.3702H46.6055V57.358H57.6965V58.3702H52.7484V59.6072H56.4033V63.501ZM56.5439 56.4022H47.7019V55.39H49.5575L49.2201 53.5626L50.4571 53.3799L50.7383 55.39H53.5356L53.8168 53.3658L55.0679 53.5486L54.6883 55.39H56.5439V56.4022ZM55.1663 62.517V60.5912H49.1357V62.517H55.1663ZM56.5579 52.9441H47.6879V51.946H56.5579V52.9441Z" fill="#424242"/>
<path d="M46 27L54 31.5V40.5L46 45L38 40.5V31.5L46 27Z" stroke="#424242" stroke-width="2" stroke-linecap="round" stroke-linejoin="round"/>
<path d="M46 36L54 31.5" stroke="#424242" stroke-width="2" stroke-linecap="round" stroke-linejoin="round"/>
<path d="M46 36V45" stroke="#424242" stroke-width="2" stroke-linecap="round" stroke-linejoin="round"/>
<path d="M46 36L38 31.5" stroke="#424242" stroke-width="2" stroke-linecap="round" stroke-linejoin="round"/>
<path d="M50 29.25L42 33.75" stroke="#424242" stroke-width="2" stroke-linecap="round" stroke-linejoin="round"/>
<defs>
<filter id="filter0_d_243_151" x="0.285645" y="0" width="90" height="90" filterUnits="userSpaceOnUse" color-interpolation-filters="sRGB">
<feFlood flood-opacity="0" result="BackgroundImageFix"/>
<feColorMatrix in="SourceAlpha" type="matrix" values="0 0 0 0 0 0 0 0 0 0 0 0 0 0 0 0 0 0 127 0" result="hardAlpha"/>
<feOffset/>
<feGaussianBlur stdDeviation="2"/>
<feComposite in2="hardAlpha" operator="out"/>
<feColorMatrix type="matrix" values="0 0 0 0 0 0 0 0 0 0 0 0 0 0 0 0 0 0 0.25 0"/>
<feBlend mode="normal" in2="BackgroundImageFix" result="effect1_dropShadow_243_151"/>
<feBlend mode="normal" in="SourceGraphic" in2="effect1_dropShadow_243_151" result="shape"/>
</filter>
</defs>
</svg>
