<svg width="91" height="90" viewBox="0 0 91 90" fill="none" xmlns="http://www.w3.org/2000/svg">
<g filter="url(#filter0_d_243_127)">
<rect x="4.28564" y="4" width="82" height="82" rx="41" fill="white"/>
</g>
<path d="M44.9625 58.2718H33.8714V57.2596H44.9625V58.2718ZM43.613 63.501H35.2209V59.4666H43.613V63.501ZM42.376 62.517V60.4506H36.472V62.517H42.376ZM43.6412 54.0265C43.6412 55.4322 42.0949 56.374 39.41 56.374C36.7391 56.374 35.1928 55.4322 35.1928 54.0265C35.1928 52.6208 36.7391 51.693 39.41 51.693C42.0949 51.693 43.6412 52.6208 43.6412 54.0265ZM42.3479 54.0265C42.3479 53.2252 41.2233 52.6911 39.41 52.6911C37.6106 52.6911 36.5001 53.2252 36.5001 54.0265C36.5001 54.8278 37.6106 55.3619 39.41 55.3619C41.1952 55.3619 42.3479 54.8278 42.3479 54.0265ZM57.3502 55.5868H55.5227V58.5951H54.2717V51.3838H55.5227V54.5607H57.3502V55.5868ZM49.3235 52.0726C51.0807 52.0726 52.5005 53.2815 52.5005 55.0386C52.5005 56.8098 51.0947 57.9344 49.3235 57.9344C47.5945 57.9344 46.1466 56.8239 46.1466 55.0386C46.1466 53.2955 47.5805 52.0726 49.3235 52.0726ZM49.3235 53.1268C48.199 53.1268 47.3837 53.9562 47.3837 55.0246C47.3837 56.1491 48.213 56.9223 49.3235 56.9223C50.4762 56.9223 51.2634 56.1491 51.2634 55.0386C51.2634 53.9562 50.5043 53.1268 49.3235 53.1268ZM55.5227 63.6838H54.2857V60.2398H47.5664V59.2417H55.5227V63.6838Z" fill="#424242"/>
<path d="M34.375 41.125C34.375 42.0201 34.7306 42.8786 35.3635 43.5115C35.9964 44.1445 36.8549 44.5 37.75 44.5C38.6451 44.5 39.5036 44.1445 40.1365 43.5115C40.7694 42.8786 41.125 42.0201 41.125 41.125C41.125 40.2299 40.7694 39.3715 40.1365 38.7385C39.5036 38.1056 38.6451 37.75 37.75 37.75C36.8549 37.75 35.9964 38.1056 35.3635 38.7385C34.7306 39.3715 34.375 40.2299 34.375 41.125Z" stroke="#424242" stroke-width="2" stroke-linecap="round" stroke-linejoin="round"/>
<path d="M45.625 41.125C45.625 42.0201 45.9806 42.8786 46.6135 43.5115C47.2464 44.1445 48.1049 44.5 49 44.5C49.8951 44.5 50.7536 44.1445 51.3865 43.5115C52.0194 42.8786 52.375 42.0201 52.375 41.125C52.375 40.2299 52.0194 39.3715 51.3865 38.7385C50.7536 38.1056 49.8951 37.75 49 37.75C48.1049 37.75 47.2464 38.1056 46.6135 38.7385C45.9806 39.3715 45.625 40.2299 45.625 41.125Z" stroke="#424242" stroke-width="2" stroke-linecap="round" stroke-linejoin="round"/>
<path d="M41.125 41.125V26.5H52.375V41.125" stroke="#424242" stroke-width="2" stroke-linecap="round" stroke-linejoin="round"/>
<path d="M41.125 31H52.375" stroke="#424242" stroke-width="2" stroke-linecap="round" stroke-linejoin="round"/>
<defs>
<filter id="filter0_d_243_127" x="0.285645" y="0" width="90" height="90" filterUnits="userSpaceOnUse" color-interpolation-filters="sRGB">
<feFlood flood-opacity="0" result="BackgroundImageFix"/>
<feColorMatrix in="SourceAlpha" type="matrix" values="0 0 0 0 0 0 0 0 0 0 0 0 0 0 0 0 0 0 127 0" result="hardAlpha"/>
<feOffset/>
<feGaussianBlur stdDeviation="2"/>
<feComposite in2="hardAlpha" operator="out"/>
<feColorMatrix type="matrix" values="0 0 0 0 0 0 0 0 0 0 0 0 0 0 0 0 0 0 0.25 0"/>
<feBlend mode="normal" in2="BackgroundImageFix" result="effect1_dropShadow_243_127"/>
<feBlend mode="normal" in="SourceGraphic" in2="effect1_dropShadow_243_127" result="shape"/>
</filter>
</defs>
</svg>
