<svg width="35" height="35" viewBox="0 0 35 35" fill="none" xmlns="http://www.w3.org/2000/svg">
<path d="M28.4381 18.3339L17.5006 29.1664L6.56314 18.3339C5.84171 17.6319 5.27345 16.7881 4.89415 15.8556C4.51485 14.9232 4.33271 13.9223 4.35922 12.9161C4.38572 11.9098 4.6203 10.9199 5.04816 10.0087C5.47603 9.09758 6.08792 8.28487 6.84531 7.6218C7.6027 6.95874 8.48917 6.45967 9.44891 6.15603C10.4086 5.8524 11.4209 5.75077 12.4218 5.85754C13.4227 5.96432 14.3907 6.27719 15.2648 6.77645C16.1389 7.27571 16.9002 7.95054 17.5006 8.75846C18.1037 7.95641 18.8658 7.28747 19.7393 6.79351C20.6128 6.29955 21.5789 5.9912 22.577 5.88776C23.5751 5.78432 24.5839 5.88802 25.5401 6.19236C26.4963 6.49671 27.3794 6.99515 28.1342 7.65649C28.8889 8.31783 29.499 9.12783 29.9263 10.0358C30.3535 10.9438 30.5888 11.9302 30.6173 12.9332C30.6459 13.9363 30.4671 14.9345 30.0921 15.8653C29.7171 16.7961 29.154 17.6394 28.4381 18.3426" stroke="black" stroke-width="1.82292" stroke-linecap="round" stroke-linejoin="round"/>
</svg>
