<svg width="260" height="162" viewBox="0 0 260 162" fill="none" xmlns="http://www.w3.org/2000/svg">
<path d="M76.47 159.53C76.47 138.41 59.35 121.29 38.23 121.29C17.11 121.29 0 138.41 0 159.53H76.47Z" fill="#005B63"/>
<path d="M76.47 121.63C76.47 100.51 59.35 83.3896 38.23 83.3896C17.11 83.3896 0 100.51 0 121.63H76.47Z" fill="#EA502C"/>
<path d="M240.858 77.1303C251.368 77.1303 259.888 68.6103 259.888 58.1003C259.888 47.5903 251.368 39.0703 240.858 39.0703C230.348 39.0703 221.828 47.5903 221.828 58.1003C221.828 68.6103 230.348 77.1303 240.858 77.1303Z" fill="#EA502C"/>
<path d="M240.858 39.06C251.368 39.06 259.888 30.54 259.888 20.03C259.888 9.52002 251.368 1 240.858 1C230.348 1 221.828 9.52002 221.828 20.03C221.828 30.54 230.348 39.06 240.858 39.06Z" fill="#EA502C"/>
<path d="M202.798 77.1303C213.308 77.1303 221.828 68.6103 221.828 58.1003C221.828 47.5903 213.308 39.0703 202.798 39.0703C192.288 39.0703 183.768 47.5903 183.768 58.1003C183.768 68.6103 192.288 77.1303 202.798 77.1303Z" fill="#EA502C"/>
<path d="M202.798 39.06C213.308 39.06 221.828 30.54 221.828 20.03C221.828 9.52002 213.308 1 202.798 1C192.288 1 183.768 9.52002 183.768 20.03C183.768 30.54 192.288 39.06 202.798 39.06Z" fill="#EA502C"/>
<path d="M185.439 87.6104H224.159C243.619 87.6104 259.419 103.41 259.419 122.87V161.59H220.699C201.239 161.59 185.439 145.79 185.439 126.33V87.6104Z" fill="#005B63"/>
<path d="M131.949 72.8604C131.949 52.9904 115.839 36.8804 95.9688 36.8804C115.839 36.8804 131.949 20.7704 131.949 0.900391C131.949 20.7704 148.059 36.8804 167.929 36.8804C148.059 36.8804 131.949 52.9904 131.949 72.8604Z" fill="#EA502C"/>
<path d="M86.1289 75.1201C86.1289 100.43 106.639 120.94 131.949 120.94C157.259 120.94 177.769 100.43 177.769 75.1201H86.1289Z" fill="#EA502C"/>
<path d="M131.95 121.54L88.2695 161.59H175.63L131.95 121.54Z" fill="#005B63"/>
</svg>
