<svg width="43" height="43" viewBox="0 0 43 43" fill="none" xmlns="http://www.w3.org/2000/svg">
<path d="M5.375 21.5C5.375 22.9255 5.94129 24.2927 6.9493 25.3007C7.95731 26.3087 9.32446 26.875 10.75 26.875C12.1755 26.875 13.5427 26.3087 14.5507 25.3007C15.5587 24.2927 16.125 22.9255 16.125 21.5C16.125 20.0745 15.5587 18.7073 14.5507 17.6993C13.5427 16.6913 12.1755 16.125 10.75 16.125C9.32446 16.125 7.95731 16.6913 6.9493 17.6993C5.94129 18.7073 5.375 20.0745 5.375 21.5Z" stroke="black" stroke-width="2.23958" stroke-linecap="round" stroke-linejoin="round"/>
<path d="M26.875 10.75C26.875 12.1755 27.4413 13.5427 28.4493 14.5507C29.4573 15.5587 30.8245 16.125 32.25 16.125C33.6755 16.125 35.0427 15.5587 36.0507 14.5507C37.0587 13.5427 37.625 12.1755 37.625 10.75C37.625 9.32446 37.0587 7.95731 36.0507 6.9493C35.0427 5.94129 33.6755 5.375 32.25 5.375C30.8245 5.375 29.4573 5.94129 28.4493 6.9493C27.4413 7.95731 26.875 9.32446 26.875 10.75Z" stroke="black" stroke-width="2.23958" stroke-linecap="round" stroke-linejoin="round"/>
<path d="M26.875 32.25C26.875 33.6755 27.4413 35.0427 28.4493 36.0507C29.4573 37.0587 30.8245 37.625 32.25 37.625C33.6755 37.625 35.0427 37.0587 36.0507 36.0507C37.0587 35.0427 37.625 33.6755 37.625 32.25C37.625 30.8245 37.0587 29.4573 36.0507 28.4493C35.0427 27.4413 33.6755 26.875 32.25 26.875C30.8245 26.875 29.4573 27.4413 28.4493 28.4493C27.4413 29.4573 26.875 30.8245 26.875 32.25Z" stroke="black" stroke-width="2.23958" stroke-linecap="round" stroke-linejoin="round"/>
<path d="M15.5862 19.1708L27.4112 13.0791" stroke="black" stroke-width="2.23958" stroke-linecap="round" stroke-linejoin="round"/>
<path d="M15.5862 23.8291L27.4112 29.9208" stroke="black" stroke-width="2.23958" stroke-linecap="round" stroke-linejoin="round"/>
</svg>
