<svg width="31" height="31" viewBox="0 0 31 31" fill="none" xmlns="http://www.w3.org/2000/svg">
<path d="M5.16663 25.8334H10.3333L23.8958 12.2709C24.235 11.9316 24.5041 11.5289 24.6877 11.0857C24.8713 10.6424 24.9658 10.1673 24.9658 9.68756C24.9658 9.2078 24.8713 8.73272 24.6877 8.28947C24.5041 7.84623 24.235 7.44348 23.8958 7.10423C23.5565 6.76498 23.1538 6.49588 22.7105 6.31228C22.2673 6.12868 21.7922 6.03418 21.3125 6.03418C20.8327 6.03418 20.3576 6.12868 19.9144 6.31228C19.4711 6.49588 19.0684 6.76498 18.7291 7.10423L5.16663 20.6667V25.8334Z" stroke="#00C78C" stroke-width="1.92708" stroke-linecap="round" stroke-linejoin="round"/>
<path d="M17.4375 8.39551L22.6042 13.5622" stroke="#00C78C" stroke-width="1.92708" stroke-linecap="round" stroke-linejoin="round"/>
<path d="M20.6666 24.542H28.4166" stroke="#00C78C" stroke-width="1.92708" stroke-linecap="round" stroke-linejoin="round"/>
<path d="M24.5416 20.667V28.417" stroke="#00C78C" stroke-width="1.92708" stroke-linecap="round" stroke-linejoin="round"/>
</svg>
