<svg width="63" height="22" viewBox="0 0 63 22" fill="none" xmlns="http://www.w3.org/2000/svg">
<path d="M0.0717773 21.47H21.0718V0.47H0.0717773V21.47ZM42.4014 21.47H40.5534V3.116H42.4014V21.47ZM37.1514 16.787H28.3524V4.964H37.1514V16.787ZM35.3034 15.254V6.476H30.2004V15.254H35.3034ZM60.7813 21.323H47.4673V17.081H58.2613V15.8H47.4043V14.183H52.8643V12.419H45.5563V10.928H62.1253V12.419H54.7333V14.183H60.1093V18.467H49.3153V19.79H60.7813V21.323ZM61.3063 8.471L60.4453 9.92C57.6313 9.416 54.7123 7.778 53.8303 5.972C53.0743 7.82 50.2603 9.395 47.2573 9.92L46.4593 8.471C49.5253 8.135 52.8853 6.392 52.8853 3.809V3.389H54.8173V3.809C54.8173 6.413 58.6393 8.261 61.3063 8.471Z" fill="black"/>
</svg>
