<svg width="79" height="8" viewBox="0 0 79 8" fill="none" xmlns="http://www.w3.org/2000/svg">
<path d="M78.3536 4.35355C78.5488 4.15829 78.5488 3.84171 78.3536 3.64645L75.1716 0.464466C74.9763 0.269204 74.6597 0.269204 74.4645 0.464466C74.2692 0.659728 74.2692 0.976311 74.4645 1.17157L77.2929 4L74.4645 6.82843C74.2692 7.02369 74.2692 7.34027 74.4645 7.53553C74.6597 7.7308 74.9763 7.7308 75.1716 7.53553L78.3536 4.35355ZM0 4.5H0.975V3.5H0V4.5ZM2.925 4.5H4.875V3.5H2.925V4.5ZM6.825 4.5H8.775V3.5H6.825V4.5ZM10.725 4.5H12.675V3.5H10.725V4.5ZM14.625 4.5H16.575V3.5H14.625V4.5ZM18.525 4.5H20.475V3.5H18.525V4.5ZM22.425 4.5H24.375V3.5H22.425V4.5ZM26.325 4.5H28.275V3.5H26.325V4.5ZM30.225 4.5H32.175V3.5H30.225V4.5ZM34.125 4.5H36.075V3.5H34.125V4.5ZM38.025 4.5H39.975V3.5H38.025V4.5ZM41.925 4.5H43.875V3.5H41.925V4.5ZM45.825 4.5H47.775V3.5H45.825V4.5ZM49.725 4.5H51.675V3.5H49.725V4.5ZM53.625 4.5H55.575V3.5H53.625V4.5ZM57.525 4.5H59.475V3.5H57.525V4.5ZM61.425 4.5H63.375V3.5H61.425V4.5ZM65.325 4.5H67.275V3.5H65.325V4.5ZM69.225 4.5H71.175V3.5H69.225V4.5ZM73.125 4.5H75.075V3.5H73.125V4.5ZM77.025 4.5H78V3.5H77.025V4.5Z" fill="black"/>
</svg>
