<svg width="229" height="151" viewBox="0 0 229 151" fill="none" xmlns="http://www.w3.org/2000/svg">
<rect width="229" height="151" rx="15" fill="#F5F5F7"/>
<path d="M38.436 52.1C38.436 57.056 34.992 59.24 30.708 59.24C26.424 59.24 22.98 57.056 22.98 52.1V43.588C22.98 38.632 26.424 36.448 30.708 36.448C34.992 36.448 38.436 38.632 38.436 43.588V52.1ZM34.18 51.876V43.812C34.18 41.32 32.64 40.2 30.708 40.2C28.776 40.2 27.236 41.32 27.236 43.812V51.876C27.236 54.368 28.776 55.488 30.708 55.488C32.64 55.488 34.18 54.368 34.18 51.876ZM55.714 52.744C55.714 57 52.606 59.24 48.126 59.24C42.974 59.24 40.538 56.44 40.538 52.268L44.85 51.988C44.794 53.948 45.83 55.488 48.042 55.488C50.254 55.488 51.458 54.452 51.458 52.66V52.184C51.458 50.476 50.506 49.244 48.21 49.244H46.334V45.604H48.07C49.722 45.604 50.898 44.344 50.898 43.028V42.692C50.898 41.152 49.946 40.2 47.986 40.2C46.362 40.2 45.074 41.208 45.13 43.196L40.818 42.916C40.818 38.744 43.702 36.448 48.07 36.448C52.41 36.448 55.154 38.772 55.154 42.412V42.888C55.154 44.624 54.482 46.192 52.858 47.228C54.622 48.236 55.714 49.888 55.714 52.016V52.744Z" fill="#7F7F7F"/>
<path d="M40.854 100.968H38.038V107.744H35.794V93.136H38.038V99.098H40.854V100.968ZM38.654 112.232H25.344V106.49H27.61V110.428H38.654V112.232ZM34.628 102.662L34.826 104.356C31.108 104.862 26.708 105.038 22.484 105.082L22.154 103.212C23.298 103.212 24.772 103.234 26.202 103.212V99.098H28.424V103.124H28.468C30.448 103.058 33.242 102.86 34.628 102.662ZM33.352 94.566C33.33 97.514 33.22 99.824 32.78 101.496L30.624 101.166C30.91 99.978 31.108 98.064 31.086 96.392H23.518V94.566H33.352ZM53.7732 105.698L54.0152 107.546C51.8592 107.942 48.7792 108.14 45.2372 108.162L42.8172 108.184V100.264H49.4612V96.656H42.7292V94.852H51.7052V102.068H45.0612V106.314C47.3932 106.314 51.2432 106.182 53.7732 105.698ZM57.8212 112.738H55.5772V93.136H57.8212V112.738ZM72.6543 106.49L71.3563 108.118C69.5303 107.106 67.1543 104.598 66.5383 102.574C66.0323 104.664 64.0743 107.26 61.6983 108.558L60.2903 106.886C63.4143 105.148 65.3723 101.98 65.3723 98.042V97.008H61.2803V95.182H71.6863V97.008H67.7043V98.042C67.7043 102.024 69.7943 104.906 72.6543 106.49ZM75.9543 93.136V100.814H78.9243V102.706H75.9543V112.738H73.6883V93.136H75.9543ZM103.255 102.156V103.96H85.5448V102.156H103.255ZM102.463 99.098L101.473 100.88C98.7668 100.462 95.3788 98.724 94.4108 96.568C93.4648 98.724 90.2528 100.396 87.3488 100.858L86.3808 99.076C89.5708 98.746 93.2448 96.832 93.2448 93.928V93.356H95.5988V93.928C95.5988 96.832 99.6908 98.922 102.463 99.098ZM101.209 109.152C101.209 111.33 98.7228 112.738 94.4108 112.738C90.0768 112.738 87.6128 111.33 87.6128 109.152C87.6128 106.996 90.0768 105.566 94.3888 105.566C98.7228 105.566 101.209 106.996 101.209 109.152ZM98.8768 109.152C98.8768 108.03 97.1608 107.37 94.3888 107.37C91.6388 107.37 89.9228 108.03 89.9228 109.152C89.9228 110.296 91.6388 110.912 94.3888 110.912C97.1608 110.912 98.8768 110.296 98.8768 109.152ZM120.706 107.348H118.462V93.136H120.706V107.348ZM121.168 112.166H107.748V106.006H109.992V110.362H121.168V112.166ZM115.206 99.384C115.206 102.178 113.182 104.18 110.19 104.18C107.198 104.18 105.13 102.178 105.13 99.406C105.13 96.612 107.176 94.588 110.19 94.588C113.182 94.588 115.206 96.59 115.206 99.384ZM112.962 99.384C112.962 97.668 111.906 96.458 110.19 96.458C108.518 96.458 107.396 97.712 107.396 99.384C107.396 100.99 108.518 102.266 110.19 102.266C111.906 102.266 112.962 100.99 112.962 99.384Z" fill="black"/>
</svg>
