<svg width="229" height="151" viewBox="0 0 229 151" fill="none" xmlns="http://www.w3.org/2000/svg">
<rect width="229" height="151" rx="15" fill="#F5F5F7"/>
<path d="M38.436 52.1C38.436 57.056 34.992 59.24 30.708 59.24C26.424 59.24 22.98 57.056 22.98 52.1V43.588C22.98 38.632 26.424 36.448 30.708 36.448C34.992 36.448 38.436 38.632 38.436 43.588V52.1ZM34.18 51.876V43.812C34.18 41.32 32.64 40.2 30.708 40.2C28.776 40.2 27.236 41.32 27.236 43.812V51.876C27.236 54.368 28.776 55.488 30.708 55.488C32.64 55.488 34.18 54.368 34.18 51.876ZM56.274 55.04H53.81V58.68H49.666V55.04H40.118V51.82L49.19 37.008H53.81V51.456H56.274V55.04ZM49.666 43.028L44.598 51.456H49.666V43.028Z" fill="#7F7F7F"/>
<path d="M38.808 103.608H36.542V99.538H33.66V97.668H36.542V93.136H38.808V103.608ZM32.868 98.658C32.868 101.408 30.712 103.102 27.852 103.102C24.97 103.102 22.836 101.408 22.836 98.658C22.836 95.974 24.97 94.016 27.852 94.016C30.712 94.016 32.868 95.908 32.868 98.658ZM30.602 98.614C30.602 96.898 29.436 95.886 27.852 95.886C26.29 95.886 25.102 96.942 25.102 98.614C25.102 100.264 26.312 101.232 27.852 101.232C29.414 101.232 30.602 100.264 30.602 98.614ZM38.83 112.496H26.048V104.686H28.336V106.798H36.564V104.62H38.83V112.496ZM36.564 110.67V108.558H28.336V110.67H36.564ZM57.6892 105.17H51.6392V108.448H59.4052V110.252H41.6952V108.448H49.3952V105.17H43.9612V98.834H54.8732V96.304H43.8952V94.5H57.1172V100.66H46.2272V103.344H57.6892V105.17ZM78.4403 108.338V110.12H60.7303V108.338H78.4403ZM76.3723 103.894H62.9963V94.896H76.1743V96.678H65.2623V102.09H76.3723V103.894ZM97.5128 103.102L97.7108 104.796C93.9928 105.28 89.5928 105.5 85.3688 105.544L85.0388 103.652C86.4688 103.652 88.3828 103.652 90.1208 103.608V101.76C87.8768 101.386 86.4028 99.89 86.4028 97.932C86.4028 95.666 88.4268 93.972 91.2648 93.972C94.0588 93.972 96.0828 95.666 96.0828 97.954C96.0828 99.89 94.5868 101.386 92.3648 101.76V103.542C94.1908 103.454 96.3688 103.278 97.5128 103.102ZM100.923 93.136V99.626H103.739V101.496H100.923V107.788H98.6788V93.136H100.923ZM101.407 112.408H88.0748V106.908H90.3188V110.604H101.407V112.408ZM93.8828 97.932C93.8828 96.81 92.9148 95.71 91.2648 95.71C89.5928 95.71 88.6248 96.832 88.6248 97.932C88.6248 99.054 89.5928 100.11 91.2648 100.11C92.9148 100.11 93.8828 99.01 93.8828 97.932ZM120.574 105.126H117.648V108.448H122.29V110.252H104.58V108.448H109.178V105.126H106.846V98.79H117.758V96.304H106.802V94.5H120.002V100.616H109.112V103.3H120.574V105.126ZM111.4 105.126V108.448H115.426V105.126H111.4Z" fill="black"/>
</svg>
