<svg width="229" height="151" viewBox="0 0 229 151" fill="none" xmlns="http://www.w3.org/2000/svg">
<rect width="229" height="151" rx="15" fill="#F5F5F7"/>
<path d="M38.436 52.1C38.436 57.056 34.992 59.24 30.708 59.24C26.424 59.24 22.98 57.056 22.98 52.1V43.588C22.98 38.632 26.424 36.448 30.708 36.448C34.992 36.448 38.436 38.632 38.436 43.588V52.1ZM34.18 51.876V43.812C34.18 41.32 32.64 40.2 30.708 40.2C28.776 40.2 27.236 41.32 27.236 43.812V51.876C27.236 54.368 28.776 55.488 30.708 55.488C32.64 55.488 34.18 54.368 34.18 51.876ZM55.434 58.68H41.098V54.732C41.098 51.792 42.47 50.168 45.634 48.236L49.274 46.024C50.086 45.52 51.038 44.4 51.038 43.252V42.748C51.038 41.208 49.946 40.2 47.986 40.2C46.39 40.2 45.214 41.32 45.214 43V43.84H40.958V43.056C40.958 38.828 43.87 36.448 48.07 36.448C52.298 36.448 55.294 38.856 55.294 42.552V42.972C55.294 46.276 53.334 47.956 50.954 49.384L47.314 51.596C45.942 52.436 45.354 53.248 45.354 54.536V54.984H55.434V58.68Z" fill="#7F7F7F"/>
<path d="M38.632 104.51H24.31V102.684H27.346L26.818 97.866L29.062 97.646L29.458 102.684H33.55L34.276 97.668L36.476 97.976L35.662 102.684H38.632V104.51ZM40.37 110.12H22.66V108.338H40.37V110.12ZM38.654 96.546H24.288V94.742H38.654V96.546ZM57.6892 105.17H51.6392V108.448H59.4052V110.252H41.6952V108.448H49.3952V105.17H43.9612V98.834H54.8732V96.304H43.8952V94.5H57.1172V100.66H46.2272V103.344H57.6892V105.17ZM69.7503 96.458H66.6703V96.92C66.6703 99.56 68.3863 101.606 70.3883 102.332L69.2003 104.026C67.9243 103.542 66.1643 101.936 65.5923 100.528C65.1083 102.024 63.6563 103.762 61.8743 104.576L60.5323 102.904C62.9743 101.826 64.4703 99.582 64.4703 96.942V96.458H61.2363V94.632H69.7503V96.458ZM63.8983 105.632H77.2523V112.76H75.0083V107.414H63.8983V105.632ZM73.5123 104.444H71.3783V99.78H68.9583V97.91H71.3783V93.51H73.5123V104.444ZM77.2523 104.598H75.0963V93.136H77.2523V104.598ZM94.5275 100.594H84.2975V103.102H95.3855V104.884H82.0315V94.632H95.1875V96.436H84.2975V98.812H94.5275V100.594ZM97.4755 108.448V110.252H79.7655V108.448H97.4755ZM120.728 103.608H118.462V99.538H115.58V97.668H118.462V93.136H120.728V103.608ZM114.788 98.658C114.788 101.408 112.632 103.102 109.772 103.102C106.89 103.102 104.756 101.408 104.756 98.658C104.756 95.974 106.89 94.016 109.772 94.016C112.632 94.016 114.788 95.908 114.788 98.658ZM112.522 98.614C112.522 96.898 111.356 95.886 109.772 95.886C108.21 95.886 107.022 96.942 107.022 98.614C107.022 100.264 108.232 101.232 109.772 101.232C111.334 101.232 112.522 100.264 112.522 98.614ZM120.75 112.496H107.968V104.686H110.256V106.798H118.484V104.62H120.75V112.496ZM118.484 110.67V108.558H110.256V110.67H118.484ZM139.609 105.17H133.559V108.448H141.325V110.252H123.615V108.448H131.315V105.17H125.881V98.834H136.793V96.304H125.815V94.5H139.037V100.66H128.147V103.344H139.609V105.17ZM160.36 108.338V110.12H142.65V108.338H160.36ZM158.292 103.894H144.916V94.896H158.094V96.678H147.182V102.09H158.292V103.894Z" fill="black"/>
</svg>
