<svg width="229" height="151" viewBox="0 0 229 151" fill="none" xmlns="http://www.w3.org/2000/svg">
<rect width="229" height="151" rx="15" fill="#F5F5F7"/>
<path d="M38.436 52.1C38.436 57.056 34.992 59.24 30.708 59.24C26.424 59.24 22.98 57.056 22.98 52.1V43.588C22.98 38.632 26.424 36.448 30.708 36.448C34.992 36.448 38.436 38.632 38.436 43.588V52.1ZM34.18 51.876V43.812C34.18 41.32 32.64 40.2 30.708 40.2C28.776 40.2 27.236 41.32 27.236 43.812V51.876C27.236 54.368 28.776 55.488 30.708 55.488C32.64 55.488 34.18 54.368 34.18 51.876ZM54.874 58.68H41.938V54.984H46.418V40.704H42.218V37.008H50.674V54.984H54.874V58.68Z" fill="#7F7F7F"/>
<path d="M35.684 107.282L35.86 109.042C31.768 109.526 27.434 109.658 22.99 109.702L22.638 107.832C24.31 107.832 26.114 107.832 27.918 107.788V105.962C25.762 105.632 24.332 104.378 24.332 102.75C24.332 100.792 26.312 99.428 29.084 99.428C31.9 99.428 33.88 100.792 33.88 102.75C33.88 104.422 32.384 105.676 30.162 105.984V107.7C32.164 107.612 34.232 107.48 35.684 107.282ZM39.05 93.136V112.738H36.784V93.136H39.05ZM34.826 98.724H23.32V96.964H34.826V98.724ZM31.57 102.75C31.57 101.826 30.536 101.188 29.084 101.188C27.698 101.188 26.642 101.826 26.642 102.75C26.642 103.652 27.698 104.29 29.084 104.29C30.536 104.29 31.57 103.652 31.57 102.75ZM26.224 95.908V94.104H31.922V95.908H26.224ZM52.6292 97.228C52.6292 99.362 50.6052 100.792 47.7672 100.792C44.9512 100.792 42.8612 99.384 42.8612 97.184C42.8612 95.094 44.9512 93.576 47.7672 93.576C50.6052 93.576 52.6292 95.094 52.6292 97.228ZM52.0132 106.16V104.51H55.8412V93.136H58.0852V108.25H55.8412V106.16H52.0132ZM58.4372 112.232H44.2472V106.468H46.4912V110.428H58.4372V112.232ZM49.5052 107.26H47.2392V103.696C45.4132 103.784 43.6092 103.828 41.7832 103.85L41.4752 101.98C43.6972 101.98 45.8312 101.958 47.9872 101.87C50.6272 101.782 52.6952 101.628 54.4332 101.43L54.5872 103.102C52.9152 103.3 51.1992 103.454 49.5052 103.564V107.26ZM50.4072 97.228C50.4072 96.194 49.3952 95.314 47.7672 95.314C46.1392 95.314 45.1052 96.194 45.1052 97.228C45.1052 98.24 46.1392 99.076 47.7672 99.076C49.3952 99.076 50.4072 98.24 50.4072 97.228ZM78.8583 102.662H75.9543V112.738H73.6883V93.136H75.9543V100.792H78.8583V102.662ZM70.8063 95.204C70.6523 101.276 67.6823 105.962 62.0283 109.064L60.6203 107.348C65.1303 105.28 68.0123 101.166 68.3863 97.052H61.7643V95.204H70.8063ZM95.9135 112.496H83.1095V104.686H85.3755V106.732H93.6695V104.642H95.9135V112.496ZM93.6695 110.67V108.536H85.3755V110.67H93.6695ZM95.8915 103.608H93.6475V93.136H95.8915V103.608ZM90.3475 98.658C90.3475 101.408 88.1915 103.102 85.3315 103.102C82.4935 103.102 80.3155 101.408 80.3155 98.658C80.3155 95.974 82.4935 94.016 85.3315 94.016C88.1915 94.016 90.3475 95.908 90.3475 98.658ZM88.1035 98.614C88.1035 96.898 86.9155 95.886 85.3315 95.886C83.7695 95.886 82.5815 96.942 82.5815 98.614C82.5815 100.264 83.7915 101.232 85.3315 101.232C86.8715 101.232 88.1035 100.264 88.1035 98.614Z" fill="black"/>
</svg>
