<svg width="63" height="22" viewBox="0 0 63 22" fill="none" xmlns="http://www.w3.org/2000/svg">
<path d="M0.0717773 21.47H21.0718V0.47H0.0717773V21.47ZM43.9554 13.406H27.3864V11.894H43.9554V13.406ZM41.9394 21.218H29.4024V15.191H41.9394V21.218ZM40.0914 19.748V16.661H31.2714V19.748H40.0914ZM41.9814 7.064C41.9814 9.164 39.6714 10.571 35.6604 10.571C31.6704 10.571 29.3604 9.164 29.3604 7.064C29.3604 4.964 31.6704 3.578 35.6604 3.578C39.6714 3.578 41.9814 4.964 41.9814 7.064ZM40.0494 7.064C40.0494 5.867 38.3694 5.069 35.6604 5.069C32.9724 5.069 31.3134 5.867 31.3134 7.064C31.3134 8.261 32.9724 9.059 35.6604 9.059C38.3274 9.059 40.0494 8.261 40.0494 7.064ZM62.4613 9.395H59.7313V13.889H57.8623V3.116H59.7313V7.862H62.4613V9.395ZM50.4703 4.145C53.0953 4.145 55.2163 5.951 55.2163 8.576C55.2163 11.222 53.1163 12.902 50.4703 12.902C47.8873 12.902 45.7243 11.243 45.7243 8.576C45.7243 5.972 47.8663 4.145 50.4703 4.145ZM50.4703 5.72C48.7903 5.72 47.5723 6.959 47.5723 8.555C47.5723 10.235 48.8113 11.39 50.4703 11.39C52.1923 11.39 53.3683 10.235 53.3683 8.576C53.3683 6.959 52.2343 5.72 50.4703 5.72ZM59.7313 21.491H57.8833V16.346H47.8453V14.855H59.7313V21.491Z" fill="black"/>
</svg>
