<svg width="289" height="50" viewBox="0 0 289 50" fill="none" xmlns="http://www.w3.org/2000/svg">
<path d="M94.388 25.215H79.415V23.306H82.589L82.037 18.269L84.383 18.039L84.797 23.306H89.075L89.834 18.062L92.134 18.384L91.283 23.306H94.388V25.215ZM96.205 31.08H77.69V29.217H96.205V31.08ZM94.411 16.889H79.392V15.003H94.411V16.889ZM114.311 25.905H107.986V29.332H116.105V31.218H97.5904V29.332H105.64V25.905H99.9594V19.281H111.367V16.636H99.8904V14.75H113.713V21.19H102.328V23.996H114.311V25.905ZM126.921 16.797H123.701V17.28C123.701 20.04 125.495 22.179 127.588 22.938L126.346 24.709C125.012 24.203 123.172 22.524 122.574 21.052C122.068 22.616 120.55 24.433 118.687 25.284L117.284 23.536C119.837 22.409 121.401 20.063 121.401 17.303V16.797H118.02V14.888H126.921V16.797ZM120.803 26.388H134.764V33.84H132.418V28.251H120.803V26.388ZM130.854 25.146H128.623V20.27H126.093V18.315H128.623V13.715H130.854V25.146ZM134.764 25.307H132.51V13.324H134.764V25.307ZM152.824 21.121H142.129V23.743H153.721V25.606H139.76V14.888H153.514V16.774H142.129V19.258H152.824V21.121ZM155.906 29.332V31.218H137.391V29.332H155.906ZM173.707 15.463C173.684 22.478 170.487 27.17 164.622 30.252L163.104 28.55C166.071 27.193 168.555 25.008 169.958 22.179L163.955 22.823L163.587 20.776L170.74 20.247C170.993 19.327 171.177 18.384 171.246 17.372H164.622V15.463H173.707ZM179.25 13.324V21.328H182.424V23.283H179.25V33.817H176.881V13.324H179.25ZM186.178 26.986C188.616 26.986 190.64 26.894 192.457 26.503L192.802 28.343C190.709 28.803 188.731 28.918 183.809 28.895V15.739H191.744V17.625H186.178V21.121H190.249V23.053H186.178V26.986ZM194.182 23.076H191.468V21.098H194.182V13.738H196.413V32.851H194.182V23.076ZM200.507 33.817H198.253V13.324H200.507V33.817ZM221.649 30.827H203.134V28.918H210.057V21.903H212.403V28.918H221.649V30.827ZM219.349 15.279C219.349 18.821 219.28 23.375 218.452 26.779L216.198 26.434C216.796 23.766 216.98 19.948 216.98 17.188H205.273V15.279H219.349ZM235.662 26.457L235.915 28.389C233.661 28.803 230.441 29.01 226.738 29.033L224.208 29.056V20.776H231.154V17.004H224.116V15.118H233.5V22.662H226.554V27.101C228.992 27.101 233.017 26.963 235.662 26.457ZM239.894 33.817H237.548V13.324H239.894V33.817ZM265.836 23.743H263.49V19.051H259.741V17.073H263.49V13.324H265.836V23.743ZM266.526 33.656H252.473V28.343H263.513V26.733H252.404V24.824H265.859V30.091H254.842V31.793H266.526V33.656ZM261.075 21.673L259.764 23.444C258.062 22.777 255.969 21.19 255.049 19.189C254.428 21.328 252.312 23.145 250.219 23.973L248.816 22.202C251.691 21.144 253.807 18.798 253.807 15.624V13.991H256.245V15.532C256.245 18.729 258.798 20.96 261.075 21.673ZM285.921 29.792C285.921 32.207 283.368 33.817 278.929 33.817C274.513 33.817 271.983 32.207 271.983 29.792C271.983 27.331 274.513 25.721 278.929 25.721C283.368 25.721 285.921 27.331 285.921 29.792ZM269.591 16.59V14.635H280.378V16.59H276.284V16.659C276.284 19.718 278.561 21.972 280.953 22.708L279.642 24.571C277.963 23.904 275.939 22.294 275.065 20.385C274.467 22.386 272.259 24.387 270.212 25.169L268.786 23.329C271.661 22.271 273.846 19.81 273.846 16.774V16.59H269.591ZM280.056 20.247V18.292H283.391V13.324H285.76V25.652H283.391V20.247H280.056ZM278.929 27.653C276.1 27.653 274.421 28.435 274.421 29.792C274.421 31.126 276.1 31.908 278.929 31.908C281.827 31.908 283.506 31.126 283.506 29.792C283.506 28.435 281.827 27.653 278.929 27.653Z" fill="black"/>
<circle cx="25" cy="25" r="25" fill="#DFFBF3"/>
<path d="M23.5685 34.001V18.773L20.4635 19.394V17.45L25.1615 15.344H26.9165V34.001H23.5685Z" fill="#00C78C"/>
</svg>
