<svg width="223" height="50" viewBox="0 0 223 50" fill="none" xmlns="http://www.w3.org/2000/svg">
<path d="M94.388 27.215H79.415V25.306H82.589L82.037 20.269L84.383 20.039L84.797 25.306H89.075L89.834 20.062L92.134 20.384L91.283 25.306H94.388V27.215ZM96.205 33.08H77.69V31.217H96.205V33.08ZM94.411 18.889H79.392V17.003H94.411V18.889ZM114.311 27.905H107.986V31.332H116.105V33.218H97.5904V31.332H105.64V27.905H99.9594V21.281H111.367V18.636H99.8904V16.75H113.713V23.19H102.328V25.996H114.311V27.905ZM126.921 18.797H123.701V19.28C123.701 22.04 125.495 24.179 127.588 24.938L126.346 26.709C125.012 26.203 123.172 24.524 122.574 23.052C122.068 24.616 120.55 26.433 118.687 27.284L117.284 25.536C119.837 24.409 121.401 22.063 121.401 19.303V18.797H118.02V16.888H126.921V18.797ZM120.803 28.388H134.764V35.84H132.418V30.251H120.803V28.388ZM130.854 27.146H128.623V22.27H126.093V20.315H128.623V15.715H130.854V27.146ZM134.764 27.307H132.51V15.324H134.764V27.307ZM152.824 23.121H142.129V25.743H153.721V27.606H139.76V16.888H153.514V18.774H142.129V21.258H152.824V23.121ZM155.906 31.332V33.218H137.391V31.332H155.906ZM180.193 35.817H177.847V15.324H180.193V35.817ZM163.932 24.087C163.932 19.763 165.887 16.911 169.176 16.911C172.465 16.911 174.374 19.763 174.374 24.11C174.374 28.411 172.465 31.263 169.176 31.263C165.887 31.263 163.932 28.411 163.932 24.087ZM172.143 24.087C172.143 20.798 170.924 18.843 169.176 18.843C167.451 18.843 166.255 20.798 166.255 24.087C166.255 27.376 167.451 29.354 169.176 29.354C170.924 29.354 172.143 27.376 172.143 24.087ZM200.093 35.817H197.747V15.324H200.093V35.817ZM191.491 28.641V19.188H186.615V28.641H191.491ZM193.883 17.302V30.55H184.246V17.302H193.883ZM215.945 29.147L214.565 30.872C212.656 29.814 210.172 27.192 209.505 25.076C208.976 27.284 206.906 29.998 204.468 31.286L202.973 29.561C206.239 27.721 208.286 24.478 208.286 20.338V19.326H204.008V17.463H214.887V19.326H210.724V20.315C210.724 24.455 212.932 27.514 215.945 29.147ZM220.016 35.817H217.67V15.324H220.016V35.817Z" fill="black"/>
<circle cx="25" cy="25" r="25" fill="#DFFBF3"/>
<path d="M25.2297 34.19V30.41H16.7247V28.466L26.0937 15.371H28.3617V27.953H31.0887V30.41H28.3617V34.19H25.2297ZM20.3427 27.953H25.2567V20.987L20.3427 27.953Z" fill="#00C78C"/>
</svg>
