<svg width="249" height="50" viewBox="0 0 249 50" fill="none" xmlns="http://www.w3.org/2000/svg">
<path d="M94.388 27.215H79.415V25.306H82.589L82.037 20.269L84.383 20.039L84.797 25.306H89.075L89.834 20.062L92.134 20.384L91.283 25.306H94.388V27.215ZM96.205 33.08H77.69V31.217H96.205V33.08ZM94.411 18.889H79.392V17.003H94.411V18.889ZM114.311 27.905H107.986V31.332H116.105V33.218H97.5904V31.332H105.64V27.905H99.9594V21.281H111.367V18.636H99.8904V16.75H113.713V23.19H102.328V25.996H114.311V27.905ZM126.921 18.797H123.701V19.28C123.701 22.04 125.495 24.179 127.588 24.938L126.346 26.709C125.012 26.203 123.172 24.524 122.574 23.052C122.068 24.616 120.55 26.433 118.687 27.284L117.284 25.536C119.837 24.409 121.401 22.063 121.401 19.303V18.797H118.02V16.888H126.921V18.797ZM120.803 28.388H134.764V35.84H132.418V30.251H120.803V28.388ZM130.854 27.146H128.623V22.27H126.093V20.315H128.623V15.715H130.854V27.146ZM134.764 27.307H132.51V15.324H134.764V27.307ZM152.824 23.121H142.129V25.743H153.721V27.606H139.76V16.888H153.514V18.774H142.129V21.258H152.824V23.121ZM155.906 31.332V33.218H137.391V31.332H155.906ZM176.145 29.147L174.765 30.872C172.856 29.814 170.372 27.192 169.705 25.076C169.176 27.284 167.106 29.998 164.668 31.286L163.173 29.561C166.439 27.721 168.486 24.478 168.486 20.338V19.326H164.208V17.463H175.087V19.326H170.924V20.315C170.924 24.455 173.132 27.514 176.145 29.147ZM180.216 35.817H177.87V15.324H180.216V35.817ZM193.906 21.327C193.906 24.225 191.606 26.157 188.662 26.157C185.81 26.157 183.441 24.225 183.441 21.327C183.441 18.498 185.764 16.382 188.662 16.382C191.56 16.382 193.906 18.452 193.906 21.327ZM186.017 28.204H200.116V35.84H197.747V30.113H186.017V28.204ZM194.504 24.662L194.596 22.73H197.747V19.878H194.596L194.504 17.946H197.747V15.324H200.116V27.123H197.747V24.662H194.504ZM191.606 21.304C191.606 19.694 190.525 18.314 188.662 18.314C186.937 18.314 185.764 19.717 185.764 21.304C185.764 23.029 186.96 24.317 188.662 24.317C190.433 24.317 191.606 22.983 191.606 21.304ZM226.035 25.743H223.689V21.051H219.94V19.073H223.689V15.324H226.035V25.743ZM226.725 35.656H212.672V30.343H223.712V28.733H212.603V26.824H226.058V32.091H215.041V33.793H226.725V35.656ZM221.274 23.673L219.963 25.444C218.261 24.777 216.168 23.19 215.248 21.189C214.627 23.328 212.511 25.145 210.418 25.973L209.015 24.202C211.89 23.144 214.006 20.798 214.006 17.624V15.991H216.444V17.532C216.444 20.729 218.997 22.96 221.274 23.673ZM246.12 31.792C246.12 34.207 243.567 35.817 239.128 35.817C234.712 35.817 232.182 34.207 232.182 31.792C232.182 29.331 234.712 27.721 239.128 27.721C243.567 27.721 246.12 29.331 246.12 31.792ZM229.79 18.59V16.635H240.577V18.59H236.483V18.659C236.483 21.718 238.76 23.972 241.152 24.708L239.841 26.571C238.162 25.904 236.138 24.294 235.264 22.385C234.666 24.386 232.458 26.387 230.411 27.169L228.985 25.329C231.86 24.271 234.045 21.81 234.045 18.774V18.59H229.79ZM240.255 22.247V20.292H243.59V15.324H245.959V27.652H243.59V22.247H240.255ZM239.128 29.653C236.299 29.653 234.62 30.435 234.62 31.792C234.62 33.126 236.299 33.908 239.128 33.908C242.026 33.908 243.705 33.126 243.705 31.792C243.705 30.435 242.026 29.653 239.128 29.653Z" fill="black"/>
<circle cx="25" cy="25" r="25" fill="#DFFBF3"/>
<path d="M23.1806 34.163C21.0746 34.163 19.1036 33.623 17.9156 32.894L18.5096 30.356C19.5086 30.95 20.9126 31.463 22.3436 31.463C24.9086 31.463 26.4746 30.221 26.4746 27.98C26.4746 25.631 25.0166 24.659 22.4786 24.659C21.3176 24.659 19.5896 25.226 18.7256 25.658L19.4006 15.479H29.0666V18.071H21.9386L21.5876 22.58C22.2086 22.418 23.2076 22.256 23.9096 22.256C27.6086 22.256 29.9036 24.146 29.9036 28.061C29.9036 31.49 27.3926 34.163 23.1806 34.163Z" fill="#00C78C"/>
</svg>
