<svg width="203" height="50" viewBox="0 0 203 50" fill="none" xmlns="http://www.w3.org/2000/svg">
<path d="M94.388 25.215H79.415V23.306H82.589L82.037 18.269L84.383 18.039L84.797 23.306H89.075L89.834 18.062L92.134 18.384L91.283 23.306H94.388V25.215ZM96.205 31.08H77.69V29.217H96.205V31.08ZM94.411 16.889H79.392V15.003H94.411V16.889ZM114.311 25.905H107.986V29.332H116.105V31.218H97.5904V29.332H105.64V25.905H99.9594V19.281H111.367V16.636H99.8904V14.75H113.713V21.19H102.328V23.996H114.311V25.905ZM126.921 16.797H123.701V17.28C123.701 20.04 125.495 22.179 127.588 22.938L126.346 24.709C125.012 24.203 123.172 22.524 122.574 21.052C122.068 22.616 120.55 24.433 118.687 25.284L117.284 23.536C119.837 22.409 121.401 20.063 121.401 17.303V16.797H118.02V14.888H126.921V16.797ZM120.803 26.388H134.764V33.84H132.418V28.251H120.803V26.388ZM130.854 25.146H128.623V20.27H126.093V18.315H128.623V13.715H130.854V25.146ZM134.764 25.307H132.51V13.324H134.764V25.307ZM152.824 21.121H142.129V23.743H153.721V25.606H139.76V14.888H153.514V16.774H142.129V19.258H152.824V21.121ZM155.906 29.332V31.218H137.391V29.332H155.906ZM180.032 19.971C180.032 23.076 177.088 25.238 172.58 25.238C168.141 25.238 165.174 23.076 165.174 19.971C165.174 16.889 168.141 14.704 172.58 14.704C177.088 14.704 180.032 16.889 180.032 19.971ZM177.617 19.971C177.617 17.993 175.639 16.659 172.58 16.659C169.567 16.659 167.566 17.993 167.566 19.971C167.566 21.949 169.567 23.283 172.58 23.283C175.616 23.283 177.617 21.949 177.617 19.971ZM181.849 31.218H163.334V29.332H167.612V25.767L170.004 25.744V29.332H175.11V25.744L177.479 25.767V29.332H181.849V31.218ZM193.883 19.327C193.883 22.225 191.537 24.042 188.616 24.042C185.741 24.042 183.372 22.225 183.372 19.327C183.372 16.498 185.718 14.474 188.616 14.474C191.514 14.474 193.883 16.452 193.883 19.327ZM202.163 20.592V22.501H199.15V25.33H196.781V13.324H199.15V15.923H202.163V17.855H199.15V20.592H202.163ZM185.81 26.388H199.173V33.84H196.804V28.251H185.81V26.388ZM191.56 19.304C191.56 17.694 190.456 16.429 188.616 16.429C186.845 16.429 185.672 17.717 185.672 19.304C185.672 21.029 186.868 22.248 188.616 22.248C190.364 22.248 191.56 20.983 191.56 19.304Z" fill="black"/>
<circle cx="25" cy="25" r="25" fill="#DFFBF3"/>
<path d="M23.6342 34.163C21.4202 34.163 19.2602 33.542 18.2072 32.867L18.7472 30.464C19.6922 31.058 21.6902 31.517 23.0672 31.517C25.5512 31.517 27.0092 30.491 27.0092 28.412C27.0092 26.441 25.5242 25.631 23.1752 25.604L21.2582 25.55V23.147L22.9592 23.12C25.0922 23.066 26.5232 22.094 26.5232 20.366C26.5232 18.503 25.2542 17.828 23.2292 17.828C21.8522 17.828 20.3942 18.287 19.2872 18.8L18.9092 16.343C20.0432 15.695 22.2842 15.182 24.0932 15.182C27.5222 15.182 29.8442 16.802 29.8442 19.772C29.8442 21.986 28.5482 23.39 26.5232 24.092C28.8452 24.551 30.4652 25.874 30.4652 28.628C30.4652 32.03 27.8462 34.163 23.6342 34.163Z" fill="#00C78C"/>
</svg>
