<svg width="203" height="50" viewBox="0 0 203 50" fill="none" xmlns="http://www.w3.org/2000/svg">
<path d="M94.388 25.215H79.415V23.306H82.589L82.037 18.269L84.383 18.039L84.797 23.306H89.075L89.834 18.062L92.134 18.384L91.283 23.306H94.388V25.215ZM96.205 31.08H77.69V29.217H96.205V31.08ZM94.411 16.889H79.392V15.003H94.411V16.889ZM114.311 25.905H107.986V29.332H116.105V31.218H97.5904V29.332H105.64V25.905H99.9594V19.281H111.367V16.636H99.8904V14.75H113.713V21.19H102.328V23.996H114.311V25.905ZM126.921 16.797H123.701V17.28C123.701 20.04 125.495 22.179 127.588 22.938L126.346 24.709C125.012 24.203 123.172 22.524 122.574 21.052C122.068 22.616 120.55 24.433 118.687 25.284L117.284 23.536C119.837 22.409 121.401 20.063 121.401 17.303V16.797H118.02V14.888H126.921V16.797ZM120.803 26.388H134.764V33.84H132.418V28.251H120.803V26.388ZM130.854 25.146H128.623V20.27H126.093V18.315H128.623V13.715H130.854V25.146ZM134.764 25.307H132.51V13.324H134.764V25.307ZM152.824 21.121H142.129V23.743H153.721V25.606H139.76V14.888H153.514V16.774H142.129V19.258H152.824V21.121ZM155.906 29.332V31.218H137.391V29.332H155.906ZM173.477 27.354L172.097 29.056C170.717 28.182 168.923 25.997 168.371 24.042C167.911 26.066 166.14 28.412 164.369 29.516L162.897 27.929C165.611 26.135 167.244 23.145 167.244 19.097V17.579H163.633V15.67H172.902V17.579H169.544V19.028C169.544 23.099 171.177 26.02 173.477 27.354ZM176.536 32.851H174.328V22.57H171.522V20.615H174.328V13.738H176.536V32.851ZM180.607 33.817H178.353V13.324H180.607V33.817ZM199.288 20.983H193.63V23.168H201.749V25.077H183.234V23.168H191.284V20.983H185.695V13.853H199.288V20.983ZM185.396 26.94H199.357V33.886H197.011V28.849H185.396V26.94ZM196.919 19.097V15.762H188.064V19.097H196.919Z" fill="black"/>
<circle cx="25" cy="25" r="25" fill="#DFFBF3"/>
<path d="M18.6794 33.893V31.949L22.2164 28.223C24.7814 25.523 26.8334 23.228 26.8334 20.906C26.8334 18.665 25.6184 17.801 23.2694 17.801C21.9734 17.801 20.4614 18.422 19.4354 19.043L18.8954 16.586C20.1374 15.857 22.0274 15.182 24.1604 15.182C28.2104 15.182 30.2894 17.126 30.2894 20.474C30.2894 23.768 27.4814 26.711 25.2134 29.06L23.0264 31.301H30.4514V33.893H18.6794Z" fill="#00C78C"/>
</svg>
