<svg width="229" height="50" viewBox="0 0 229 50" fill="none" xmlns="http://www.w3.org/2000/svg">
<path d="M94.388 27.215H79.415V25.306H82.589L82.037 20.269L84.383 20.039L84.797 25.306H89.075L89.834 20.062L92.134 20.384L91.283 25.306H94.388V27.215ZM96.205 33.08H77.69V31.217H96.205V33.08ZM94.411 18.889H79.392V17.003H94.411V18.889ZM114.311 27.905H107.986V31.332H116.105V33.218H97.5904V31.332H105.64V27.905H99.9594V21.281H111.367V18.636H99.8904V16.75H113.713V23.19H102.328V25.996H114.311V27.905ZM126.921 18.797H123.701V19.28C123.701 22.04 125.495 24.179 127.588 24.938L126.346 26.709C125.012 26.203 123.172 24.524 122.574 23.052C122.068 24.616 120.55 26.433 118.687 27.284L117.284 25.536C119.837 24.409 121.401 22.063 121.401 19.303V18.797H118.02V16.888H126.921V18.797ZM120.803 28.388H134.764V35.84H132.418V30.251H120.803V28.388ZM130.854 27.146H128.623V22.27H126.093V20.315H128.623V15.715H130.854V27.146ZM134.764 27.307H132.51V15.324H134.764V27.307ZM152.824 23.121H142.129V25.743H153.721V27.606H139.76V16.888H153.514V18.774H142.129V21.258H152.824V23.121ZM155.906 31.332V33.218H137.391V31.332H155.906ZM180.193 35.541H166.807V27.951H180.193V35.541ZM177.847 33.678V29.814H169.176V33.678H177.847ZM175.478 23.88L175.8 25.697C173.707 26.18 170.464 26.387 166.531 26.387H164.484V16.497H173.822V18.383H166.807V20.43H173.477V22.293H166.807V24.455C169.659 24.455 172.58 24.432 175.478 23.88ZM180.193 15.324V26.847H177.847V15.324H180.193ZM207.193 24.616L205.974 26.433C202.915 25.651 199.58 23.328 198.522 20.798C197.579 23.351 194.175 25.697 191.07 26.433L189.92 24.524C193.278 23.995 197.326 21.235 197.326 17.716V16.497H199.787V17.716C199.787 21.189 204.111 24.041 207.193 24.616ZM207.791 33.241H189.276V31.332H197.326V26.295H199.672V31.332H207.791V33.241ZM226.449 35.817H224.195V25.444H222.148V34.851H219.917V15.738H222.148V23.466H224.195V15.324H226.449V35.817ZM217.893 17.785C217.847 23.926 215.294 28.434 210.372 31.677L208.854 30.044C212.925 27.629 215.271 23.834 215.547 19.717H209.981V17.785H217.893Z" fill="black"/>
<circle cx="25" cy="25" r="25" fill="#DFFBF3"/>
<path d="M25.2297 34.19V30.41H16.7247V28.466L26.0937 15.371H28.3617V27.953H31.0887V30.41H28.3617V34.19H25.2297ZM20.3427 27.953H25.2567V20.987L20.3427 27.953Z" fill="#00C78C"/>
</svg>
