<svg width="183" height="50" viewBox="0 0 183 50" fill="none" xmlns="http://www.w3.org/2000/svg">
<path d="M93.859 29.93C93.859 32.253 91.283 33.817 86.913 33.817C82.52 33.817 79.967 32.253 79.967 29.93C79.967 27.607 82.52 26.02 86.913 26.02C91.283 26.02 93.859 27.607 93.859 29.93ZM86.913 27.906C84.038 27.906 82.382 28.711 82.382 29.93C82.382 31.149 84.038 31.931 86.913 31.931C89.788 31.931 91.444 31.149 91.444 29.93C91.444 28.711 89.788 27.906 86.913 27.906ZM89.397 23.375L88.178 25.238C86.545 24.686 84.406 23.214 83.532 21.397C82.819 23.283 80.726 25.077 78.61 25.79L77.276 23.973C79.668 23.191 81.761 21.489 82.221 18.867H78.127V17.004H88.891V18.867H84.82C85.165 21.167 87.143 22.708 89.397 23.375ZM96.642 20.454H93.606V25.698H91.237V13.324H93.606V18.476H96.642V20.454ZM86.43 15.67H80.611V13.784H86.43V15.67ZM97.8434 16.59V14.635H108.63V16.59H104.536V16.636C104.536 19.649 106.813 21.88 109.182 22.662L107.894 24.548C106.169 23.858 104.214 22.248 103.317 20.316C102.719 22.34 100.534 24.318 98.4644 25.1L97.0844 23.283C99.9594 22.202 102.121 19.764 102.121 16.705V16.59H97.8434ZM100.143 26.411H113.529V33.84H111.16V28.274H100.143V26.411ZM116.519 20.247H113.506V25.33H111.137V13.324H113.506V18.292H116.519V20.247ZM129.957 27.285L128.6 28.987C126.691 27.929 124.207 25.307 123.563 23.191C123.034 25.376 120.987 28.09 118.503 29.447L117.031 27.699C120.297 25.882 122.344 22.57 122.344 18.453V17.372H118.066V15.463H128.945V17.372H124.782V18.453C124.782 22.616 126.967 25.629 129.957 27.285ZM133.407 13.324V21.351H136.512V23.329H133.407V33.817H131.038V13.324H133.407ZM161.35 22.616L160.131 24.433C157.072 23.651 153.737 21.328 152.679 18.798C151.736 21.351 148.332 23.697 145.227 24.433L144.077 22.524C147.435 21.995 151.483 19.235 151.483 15.716V14.497H153.944V15.716C153.944 19.189 158.268 22.041 161.35 22.616ZM161.948 31.241H143.433V29.332H151.483V24.295H153.829V29.332H161.948V31.241ZM180.607 33.817H178.353V23.444H176.306V32.851H174.075V13.738H176.306V21.466H178.353V13.324H180.607V33.817ZM172.051 15.785C172.005 21.926 169.452 26.434 164.53 29.677L163.012 28.044C167.083 25.629 169.429 21.834 169.705 17.717H164.139V15.785H172.051Z" fill="black"/>
<circle cx="25" cy="25" r="25" fill="#DFFBF3"/>
<path d="M23.5685 34.001V18.773L20.4635 19.394V17.45L25.1615 15.344H26.9165V34.001H23.5685Z" fill="#00C78C"/>
</svg>
