<svg width="163" height="50" viewBox="0 0 163 50" fill="none" xmlns="http://www.w3.org/2000/svg">
<path d="M94.572 33.564H81.186V25.399H83.555V27.538H92.226V25.353H94.572V33.564ZM92.226 31.655V29.424H83.555V31.655H92.226ZM94.549 24.272H92.203V13.324H94.549V24.272ZM88.753 19.097C88.753 21.972 86.499 23.743 83.509 23.743C80.542 23.743 78.265 21.972 78.265 19.097C78.265 16.291 80.542 14.244 83.509 14.244C86.499 14.244 88.753 16.222 88.753 19.097ZM86.407 19.051C86.407 17.257 85.165 16.199 83.509 16.199C81.876 16.199 80.634 17.303 80.634 19.051C80.634 20.776 81.899 21.788 83.509 21.788C85.119 21.788 86.407 20.776 86.407 19.051ZM113.736 33.564H99.9594V26.043H113.736V33.564ZM113.667 14.198C113.667 16.935 113.46 19.58 113.023 21.581H116.105V23.49H97.5904V21.581H110.769C111.091 20.178 111.298 17.694 111.321 16.084H99.9594V14.198H113.667ZM111.39 31.678V27.883H102.305V31.678H111.39ZM136.827 32.851H134.596V25.79H131.79V23.927H134.596V20.638H132.296V18.798H134.596V13.738H136.827V32.851ZM140.806 33.817H138.552V13.324H140.806V33.817ZM132.112 15.785C132.066 21.926 129.582 26.434 124.683 29.677L123.119 28.044C127.19 25.629 129.513 21.834 129.789 17.717H124.338V15.785H132.112ZM155.623 22.409L154.473 24.249C152.702 23.582 150.448 22.018 149.643 20.247C148.953 22.133 147.021 23.881 144.721 24.801L143.387 22.961C146.124 22.064 148.332 19.948 148.378 17.119H144.1V15.21H155.025V17.119H150.77C150.839 19.879 153.3 21.65 155.623 22.409ZM159.51 13.324V21.627H162.431V23.582H159.51V33.817H157.164V13.324H159.51ZM156.152 29.171C151.989 29.746 147.596 29.907 143.318 29.93L142.996 27.952C144.721 27.952 146.561 27.952 148.447 27.883V23.674H150.816V27.791C152.886 27.676 154.588 27.515 155.968 27.354L156.152 29.171Z" fill="black"/>
<circle cx="25" cy="25" r="25" fill="#DFFBF3"/>
<path d="M18.6794 33.893V31.949L22.2164 28.223C24.7814 25.523 26.8334 23.228 26.8334 20.906C26.8334 18.665 25.6184 17.801 23.2694 17.801C21.9734 17.801 20.4614 18.422 19.4354 19.043L18.8954 16.586C20.1374 15.857 22.0274 15.182 24.1604 15.182C28.2104 15.182 30.2894 17.126 30.2894 20.474C30.2894 23.768 27.4814 26.711 25.2134 29.06L23.0264 31.301H30.4514V33.893H18.6794Z" fill="#00C78C"/>
</svg>
