<svg width="203" height="50" viewBox="0 0 203 50" fill="none" xmlns="http://www.w3.org/2000/svg">
<path d="M94.388 25.215H79.415V23.306H82.589L82.037 18.269L84.383 18.039L84.797 23.306H89.075L89.834 18.062L92.134 18.384L91.283 23.306H94.388V25.215ZM96.205 31.08H77.69V29.217H96.205V31.08ZM94.411 16.889H79.392V15.003H94.411V16.889ZM114.311 25.905H107.986V29.332H116.105V31.218H97.5904V29.332H105.64V25.905H99.9594V19.281H111.367V16.636H99.8904V14.75H113.713V21.19H102.328V23.996H114.311V25.905ZM126.921 16.797H123.701V17.28C123.701 20.04 125.495 22.179 127.588 22.938L126.346 24.709C125.012 24.203 123.172 22.524 122.574 21.052C122.068 22.616 120.55 24.433 118.687 25.284L117.284 23.536C119.837 22.409 121.401 20.063 121.401 17.303V16.797H118.02V14.888H126.921V16.797ZM120.803 26.388H134.764V33.84H132.418V28.251H120.803V26.388ZM130.854 25.146H128.623V20.27H126.093V18.315H128.623V13.715H130.854V25.146ZM134.764 25.307H132.51V13.324H134.764V25.307ZM152.824 21.121H142.129V23.743H153.721V25.606H139.76V14.888H153.514V16.774H142.129V19.258H152.824V21.121ZM155.906 29.332V31.218H137.391V29.332H155.906ZM181.251 22.616L180.032 24.433C176.973 23.651 173.638 21.328 172.58 18.798C171.637 21.351 168.233 23.697 165.128 24.433L163.978 22.524C167.336 21.995 171.384 19.235 171.384 15.716V14.497H173.845V15.716C173.845 19.189 178.169 22.041 181.251 22.616ZM181.849 31.241H163.334V29.332H171.384V24.295H173.73V29.332H181.849V31.241ZM200.507 33.817H198.253V23.444H196.206V32.851H193.975V13.738H196.206V21.466H198.253V13.324H200.507V33.817ZM191.951 15.785C191.905 21.926 189.352 26.434 184.43 29.677L182.912 28.044C186.983 25.629 189.329 21.834 189.605 17.717H184.039V15.785H191.951Z" fill="black"/>
<circle cx="25" cy="25" r="25" fill="#DFFBF3"/>
<path d="M23.5685 34.001V18.773L20.4635 19.394V17.45L25.1615 15.344H26.9165V34.001H23.5685Z" fill="#00C78C"/>
</svg>
