<svg width="203" height="50" viewBox="0 0 203 50" fill="none" xmlns="http://www.w3.org/2000/svg">
<path d="M94.388 25.215H79.415V23.306H82.589L82.037 18.269L84.383 18.039L84.797 23.306H89.075L89.834 18.062L92.134 18.384L91.283 23.306H94.388V25.215ZM96.205 31.08H77.69V29.217H96.205V31.08ZM94.411 16.889H79.392V15.003H94.411V16.889ZM114.311 25.905H107.986V29.332H116.105V31.218H97.5904V29.332H105.64V25.905H99.9594V19.281H111.367V16.636H99.8904V14.75H113.713V21.19H102.328V23.996H114.311V25.905ZM126.921 16.797H123.701V17.28C123.701 20.04 125.495 22.179 127.588 22.938L126.346 24.709C125.012 24.203 123.172 22.524 122.574 21.052C122.068 22.616 120.55 24.433 118.687 25.284L117.284 23.536C119.837 22.409 121.401 20.063 121.401 17.303V16.797H118.02V14.888H126.921V16.797ZM120.803 26.388H134.764V33.84H132.418V28.251H120.803V26.388ZM130.854 25.146H128.623V20.27H126.093V18.315H128.623V13.715H130.854V25.146ZM134.764 25.307H132.51V13.324H134.764V25.307ZM152.824 21.121H142.129V23.743H153.721V25.606H139.76V14.888H153.514V16.774H142.129V19.258H152.824V21.121ZM155.906 29.332V31.218H137.391V29.332H155.906ZM174.351 26.25H171.798C171.108 28.159 169.889 29.424 167.98 29.424C164.921 29.424 163.564 26.112 163.564 22.225C163.564 18.361 164.921 15.072 167.98 15.072C169.797 15.072 171.016 16.245 171.706 17.993H174.351V13.715H176.582V32.851H174.351V26.25ZM180.607 33.817H178.353V13.324H180.607V33.817ZM170.165 22.248C170.165 19.281 169.475 17.096 168.003 17.096C166.554 17.096 165.841 19.281 165.841 22.248C165.841 25.215 166.554 27.354 168.003 27.354C169.475 27.354 170.165 25.215 170.165 22.248ZM172.396 22.248C172.396 23.007 172.327 23.743 172.235 24.41H174.351V19.856H172.189C172.327 20.615 172.396 21.42 172.396 22.248ZM199.15 13.324V19.304H202.186V21.282H199.15V28.182H196.781V13.324H199.15ZM199.748 33.196H186.04V26.687H188.409V31.287H199.748V33.196ZM195.102 23.145L193.745 24.985C192.02 24.249 189.927 22.409 189.03 20.431C188.409 22.57 186.224 24.755 184.177 25.583L182.751 23.697C185.626 22.57 187.788 19.856 187.788 16.659V14.474H190.226V16.567C190.226 19.81 192.733 22.363 195.102 23.145Z" fill="black"/>
<circle cx="25" cy="25" r="25" fill="#DFFBF3"/>
<path d="M18.6794 33.893V31.949L22.2164 28.223C24.7814 25.523 26.8334 23.228 26.8334 20.906C26.8334 18.665 25.6184 17.801 23.2694 17.801C21.9734 17.801 20.4614 18.422 19.4354 19.043L18.8954 16.586C20.1374 15.857 22.0274 15.182 24.1604 15.182C28.2104 15.182 30.2894 17.126 30.2894 20.474C30.2894 23.768 27.4814 26.711 25.2134 29.06L23.0264 31.301H30.4514V33.893H18.6794Z" fill="#00C78C"/>
</svg>
