<svg width="203" height="50" viewBox="0 0 203 50" fill="none" xmlns="http://www.w3.org/2000/svg">
<path d="M94.388 25.215H79.415V23.306H82.589L82.037 18.269L84.383 18.039L84.797 23.306H89.075L89.834 18.062L92.134 18.384L91.283 23.306H94.388V25.215ZM96.205 31.08H77.69V29.217H96.205V31.08ZM94.411 16.889H79.392V15.003H94.411V16.889ZM114.311 25.905H107.986V29.332H116.105V31.218H97.5904V29.332H105.64V25.905H99.9594V19.281H111.367V16.636H99.8904V14.75H113.713V21.19H102.328V23.996H114.311V25.905ZM126.921 16.797H123.701V17.28C123.701 20.04 125.495 22.179 127.588 22.938L126.346 24.709C125.012 24.203 123.172 22.524 122.574 21.052C122.068 22.616 120.55 24.433 118.687 25.284L117.284 23.536C119.837 22.409 121.401 20.063 121.401 17.303V16.797H118.02V14.888H126.921V16.797ZM120.803 26.388H134.764V33.84H132.418V28.251H120.803V26.388ZM130.854 25.146H128.623V20.27H126.093V18.315H128.623V13.715H130.854V25.146ZM134.764 25.307H132.51V13.324H134.764V25.307ZM152.824 21.121H142.129V23.743H153.721V25.606H139.76V14.888H153.514V16.774H142.129V19.258H152.824V21.121ZM155.906 29.332V31.218H137.391V29.332H155.906ZM174.351 18.752C174.351 21.466 172.12 23.26 169.13 23.26C166.232 23.26 163.909 21.535 163.909 18.752C163.909 16.015 166.14 14.06 169.13 14.06C172.12 14.06 174.351 15.969 174.351 18.752ZM172.028 18.729C172.028 17.188 170.924 16.015 169.13 16.015C167.543 16.015 166.232 17.211 166.232 18.729C166.232 20.224 167.474 21.305 169.13 21.305C170.878 21.305 172.028 20.132 172.028 18.729ZM180.883 33.656H166.876V28.297H177.87V26.618H166.784V24.709H180.216V30.045H169.245V31.793H180.883V33.656ZM180.193 23.651H177.847V13.324H180.193V23.651ZM200.277 29.792C200.277 32.207 197.724 33.817 193.285 33.817C188.869 33.817 186.339 32.207 186.339 29.792C186.339 27.331 188.869 25.721 193.285 25.721C197.724 25.721 200.277 27.331 200.277 29.792ZM183.947 16.59V14.635H194.734V16.59H190.64V16.659C190.64 19.718 192.917 21.972 195.309 22.708L193.998 24.571C192.319 23.904 190.295 22.294 189.421 20.385C188.823 22.386 186.615 24.387 184.568 25.169L183.142 23.329C186.017 22.271 188.202 19.81 188.202 16.774V16.59H183.947ZM194.412 20.247V18.292H197.747V13.324H200.116V25.652H197.747V20.247H194.412ZM193.285 27.653C190.456 27.653 188.777 28.435 188.777 29.792C188.777 31.126 190.456 31.908 193.285 31.908C196.183 31.908 197.862 31.126 197.862 29.792C197.862 28.435 196.183 27.653 193.285 27.653Z" fill="black"/>
<circle cx="25" cy="25" r="25" fill="#DFFBF3"/>
<path d="M23.6342 34.163C21.4202 34.163 19.2602 33.542 18.2072 32.867L18.7472 30.464C19.6922 31.058 21.6902 31.517 23.0672 31.517C25.5512 31.517 27.0092 30.491 27.0092 28.412C27.0092 26.441 25.5242 25.631 23.1752 25.604L21.2582 25.55V23.147L22.9592 23.12C25.0922 23.066 26.5232 22.094 26.5232 20.366C26.5232 18.503 25.2542 17.828 23.2292 17.828C21.8522 17.828 20.3942 18.287 19.2872 18.8L18.9092 16.343C20.0432 15.695 22.2842 15.182 24.0932 15.182C27.5222 15.182 29.8442 16.802 29.8442 19.772C29.8442 21.986 28.5482 23.39 26.5232 24.092C28.8452 24.551 30.4652 25.874 30.4652 28.628C30.4652 32.03 27.8462 34.163 23.6342 34.163Z" fill="#00C78C"/>
</svg>
