<svg width="163" height="50" viewBox="0 0 163 50" fill="none" xmlns="http://www.w3.org/2000/svg">
<path d="M93.744 20.983H88.086V23.168H96.205V25.077H77.69V23.168H85.74V20.983H80.151V13.853H93.744V20.983ZM79.852 26.94H93.813V33.886H91.467V28.849H79.852V26.94ZM91.375 19.097V15.762H82.52V19.097H91.375ZM116.105 31.172H97.5904V29.286H102.305V25.169H104.651V29.286H108.975V25.169H111.321V29.286H116.105V31.172ZM114.288 24.157H99.3154V22.248H102.351L101.96 18.062L104.329 17.763L104.605 22.248H109.159L109.757 17.809L112.057 18.2L111.39 22.248H114.288V24.157ZM114.311 16.843H99.2924V14.957H114.311V16.843ZM139.679 33.564H125.902V26.043H139.679V33.564ZM139.61 14.198C139.61 16.935 139.403 19.58 138.966 21.581H142.048V23.49H123.533V21.581H136.712C137.034 20.178 137.241 17.694 137.264 16.084H125.902V14.198H139.61ZM137.333 31.678V27.883H128.248V31.678H137.333ZM152.978 19.189C152.978 21.788 151.299 23.95 148.355 23.95C145.411 23.95 143.686 21.788 143.686 19.189C143.686 16.636 145.411 14.497 148.332 14.497C151.276 14.497 152.978 16.636 152.978 19.189ZM160.706 25.376H158.452V20.27H156.612V25.146H154.404V13.692H156.612V18.315H158.452V13.324H160.706V25.376ZM146.745 26.388H160.706V33.84H158.383V28.251H146.745V26.388ZM150.77 19.212C150.77 17.602 149.804 16.383 148.332 16.383C146.883 16.383 145.917 17.602 145.917 19.189C145.917 20.845 146.883 22.064 148.332 22.064C149.804 22.064 150.77 20.845 150.77 19.212Z" fill="black"/>
<circle cx="25" cy="25" r="25" fill="#DFFBF3"/>
<path d="M23.5685 34.001V18.773L20.4635 19.394V17.45L25.1615 15.344H26.9165V34.001H23.5685Z" fill="#00C78C"/>
</svg>
