<svg width="124" height="124" viewBox="0 0 124 124" fill="none" xmlns="http://www.w3.org/2000/svg">
<path d="M36.1689 93.0012C29.7223 93.0012 23.5398 90.5516 18.9814 86.1914C14.4229 81.8312 11.8621 75.9175 11.8621 69.7512C11.8621 63.5849 14.4229 57.6712 18.9814 53.3109C23.5398 48.9507 29.7223 46.5012 36.1689 46.5012C37.6914 39.7183 42.1455 33.7575 48.5512 29.9302C51.7231 28.0351 55.2785 26.7208 59.0147 26.0624C62.7509 25.404 66.5946 25.4143 70.3263 26.0928C74.058 26.7713 77.6047 28.1047 80.7639 30.0168C83.923 31.9289 86.6328 34.3823 88.7385 37.237C90.8441 40.0916 92.3044 43.2915 93.036 46.6541C93.7676 50.0166 93.7561 53.476 93.0022 56.8345H98.1689C102.965 56.8345 107.564 58.7397 110.956 62.131C114.347 65.5223 116.252 70.1218 116.252 74.9178C116.252 79.7138 114.347 84.3134 110.956 87.7047C107.564 91.096 102.965 93.0012 98.1689 93.0012H93.0022" stroke="#ABABAB" stroke-width="5" stroke-linecap="round" stroke-linejoin="round"/>
<path d="M46.5 77.5L62 62L77.5 77.5" stroke="#ABABAB" stroke-width="5" stroke-linecap="round" stroke-linejoin="round"/>
<path d="M62 62V108.5" stroke="#ABABAB" stroke-width="5" stroke-linecap="round" stroke-linejoin="round"/>
</svg>
