<svg width="163" height="50" viewBox="0 0 163 50" fill="none" xmlns="http://www.w3.org/2000/svg">
<path d="M82.037 17.901L82.336 23.421C82.888 23.421 83.394 23.398 83.9 23.375C84.245 23.375 84.567 23.352 84.912 23.352L85.211 17.901L87.488 18.085L86.982 23.26C88.224 23.168 89.259 23.099 89.995 22.961L90.179 24.755C86.246 25.376 82.152 25.468 77.736 25.491L77.506 23.49C78.449 23.49 79.369 23.49 80.266 23.467L79.737 18.131L82.037 17.901ZM92.203 21.098H89.19V19.143H92.203V13.324H94.572V28.205H92.203V21.098ZM95.009 33.219H81.186V26.963H83.578V31.333H95.009V33.219ZM89.328 16.889H78.15V15.026H89.328V16.889ZM114.449 25.468H112.103V13.324H114.449V25.468ZM114.587 29.792C114.587 32.161 112.057 33.794 107.595 33.794C103.179 33.794 100.649 32.161 100.649 29.792C100.649 27.354 103.179 25.721 107.595 25.721C112.057 25.721 114.587 27.354 114.587 29.792ZM107.595 27.63C104.743 27.63 103.064 28.435 103.064 29.792C103.064 31.103 104.743 31.908 107.595 31.908C110.493 31.908 112.195 31.103 112.195 29.792C112.195 28.435 110.493 27.63 107.595 27.63ZM110.033 21.42L110.355 23.26C108.331 23.72 104.628 23.95 100.902 23.973H98.7404V14.819H108.285V16.705H101.063V22.064C104.122 22.064 107.848 21.88 110.033 21.42ZM134.55 18.752C134.55 21.466 132.319 23.26 129.329 23.26C126.431 23.26 124.108 21.535 124.108 18.752C124.108 16.015 126.339 14.06 129.329 14.06C132.319 14.06 134.55 15.969 134.55 18.752ZM132.227 18.729C132.227 17.188 131.123 16.015 129.329 16.015C127.742 16.015 126.431 17.211 126.431 18.729C126.431 20.224 127.673 21.305 129.329 21.305C131.077 21.305 132.227 20.132 132.227 18.729ZM141.082 33.656H127.075V28.297H138.069V26.618H126.983V24.709H140.415V30.045H129.444V31.793H141.082V33.656ZM140.392 23.651H138.046V13.324H140.392V23.651ZM160.476 29.792C160.476 32.207 157.923 33.817 153.484 33.817C149.068 33.817 146.538 32.207 146.538 29.792C146.538 27.331 149.068 25.721 153.484 25.721C157.923 25.721 160.476 27.331 160.476 29.792ZM144.146 16.59V14.635H154.933V16.59H150.839V16.659C150.839 19.718 153.116 21.972 155.508 22.708L154.197 24.571C152.518 23.904 150.494 22.294 149.62 20.385C149.022 22.386 146.814 24.387 144.767 25.169L143.341 23.329C146.216 22.271 148.401 19.81 148.401 16.774V16.59H144.146ZM154.611 20.247V18.292H157.946V13.324H160.315V25.652H157.946V20.247H154.611ZM153.484 27.653C150.655 27.653 148.976 28.435 148.976 29.792C148.976 31.126 150.655 31.908 153.484 31.908C156.382 31.908 158.061 31.126 158.061 29.792C158.061 28.435 156.382 27.653 153.484 27.653Z" fill="black"/>
<circle cx="25" cy="25" r="25" fill="#DFFBF3"/>
<path d="M18.6794 33.893V31.949L22.2164 28.223C24.7814 25.523 26.8334 23.228 26.8334 20.906C26.8334 18.665 25.6184 17.801 23.2694 17.801C21.9734 17.801 20.4614 18.422 19.4354 19.043L18.8954 16.586C20.1374 15.857 22.0274 15.182 24.1604 15.182C28.2104 15.182 30.2894 17.126 30.2894 20.474C30.2894 23.768 27.4814 26.711 25.2134 29.06L23.0264 31.301H30.4514V33.893H18.6794Z" fill="#00C78C"/>
</svg>
