<svg width="33" height="33" viewBox="0 0 33 33" fill="none" xmlns="http://www.w3.org/2000/svg">
<path d="M12.375 20.625L20.625 12.375" stroke="#00C78C" stroke-width="2" stroke-linecap="round" stroke-linejoin="round"/>
<path d="M15.125 8.25L15.7616 7.513C17.0511 6.2237 18.7999 5.49945 20.6234 5.49958C22.4469 5.49971 24.1956 6.22421 25.4849 7.51369C26.7742 8.80317 27.4985 10.552 27.4984 12.3755C27.4982 14.199 26.7737 15.9477 25.4843 17.237L24.75 17.875" stroke="#00C78C" stroke-width="2" stroke-linecap="round" stroke-linejoin="round"/>
<path d="M17.875 24.75L17.3291 25.4843C16.0245 26.7743 14.2639 27.4978 12.4293 27.4978C10.5946 27.4978 8.83398 26.7743 7.52945 25.4843C6.88644 24.8485 6.37596 24.0914 6.02755 23.2569C5.67915 22.4225 5.49976 21.5272 5.49976 20.6229C5.49976 19.7187 5.67915 18.8234 6.02755 17.9889C6.37596 17.1545 6.88644 16.3974 7.52945 15.7616L8.24995 15.125" stroke="#00C78C" stroke-width="2" stroke-linecap="round" stroke-linejoin="round"/>
</svg>
